<?xml version="1.0" encoding="iso-8859-1"?>
<!-- Uploaded to: SVG Repo, www.svgrepo.com, Generator: SVG Repo Mixer Tools -->
<svg fill="#000000" height="800px" width="800px" version="1.1" id="Layer_1" xmlns="http://www.w3.org/2000/svg" xmlns:xlink="http://www.w3.org/1999/xlink" 
	 viewBox="0 0 512.006 512.006" xml:space="preserve">
<g>
	<g>
		<path d="M422.567,250.805c-8.906,0-16.125,7.22-16.125,16.125v12.9c0,8.905,7.22,16.125,16.125,16.125
			c8.905,0,16.125-7.22,16.125-16.125v-12.9C438.693,258.024,431.473,250.805,422.567,250.805z"/>
	</g>
</g>
<g>
	<g>
		<path d="M495.837,315.446c-2.923,0-5.544,0.246-8.769,0.704V198.129c0-8.905-7.069-16.125-15.975-16.125h-96.562
			c-8.906,0-16.465,7.22-16.465,16.125v117.229c0-0.033-1.211-0.052-1.988-0.052h-11.988V159.692c0-8.905-7.485-16.39-16.392-16.39
			h-26.2c0.427-1.075,0.665-2.846,0.665-4.432c0-8.905-7.22-15.993-16.125-15.993h-39.776V96.002c0-8.905-7.22-16.125-16.125-16.125
			c-8.906,0-16.125,7.22-16.125,16.125v26.876h-39.776c-8.905,0-16.125,7.088-16.125,15.993c0,1.587,0.239,3.357,0.665,4.432
			h-27.173c-8.905,0-16.493,7.483-16.493,16.39v137.956c-10.75,1.036-20.951,5.17-29.504,11.71
			c-9.991-7.809-22.27-12.294-34.926-12.294c-19.125,0-37.546,10.236-48.148,26.716c-3.193,4.961-3.363,11.271-0.536,16.449
			c2.826,5.179,8.301,8.401,14.201,8.401c5.995,0,11.217-3.271,13.985-8.128c1.953-2.792,4.932-5.728,8.679-7.895
			c3.392-1.961,7.414-3.294,11.909-3.294c4.577,0,8.665,1.383,12.095,3.404c3.984,2.347,7.079,5.559,8.98,8.512
			c2.967,4.613,8.077,7.4,13.561,7.4h0.61c5.485,0,10.593-2.788,13.561-7.4c1.855-2.883,4.934-6.018,8.964-8.305
			c3.448-1.957,7.589-3.294,12.279-3.294c4.445,0,8.74,1.223,12.457,3.406c3.455,2.029,6.414,4.885,8.513,8.389
			c3.023,5.045,8.366,7.84,13.847,7.84c2.82,0,5.677-0.741,8.272-2.295c6.328-3.791,9.103-11.234,7.274-18.021
			c-0.379-1.406-1.126-2.788-1.911-4.099c-5.284-8.819-12.234-15.895-21.909-20.658V175.553h164.478v229.17v8.703
			c0,0.658-0.082,1.303-0.005,1.939c-3.942,1.856-7.758,4.147-11.218,6.849c-9.938-7.644-22.281-12.027-34.919-12.027
			c-12.447,0-24.624,4.31-34.502,11.83c-9.859-7.521-21.969-11.831-34.324-11.831c-12.637,0-24.952,4.384-34.89,12.028
			c-9.988-7.797-22.348-12.272-34.993-12.272c-12.658,0-25.032,4.486-35.024,12.297c-9.913-7.568-22.208-11.907-34.853-11.907
			c-8.905,0-16.125,7.22-16.125,16.125c0,8.905,7.22,16.125,16.125,16.125c8.297,0,16.568,4.524,21.073,11.524
			c2.967,4.613,8.076,7.4,13.56,7.4h0.609c5.485,0,10.593-2.787,13.561-7.4c3.537-5.497,11.177-11.916,21.073-11.916
			s17.537,6.419,21.074,11.916c2.967,4.613,8.076,7.4,13.56,7.4h0.61c5.485,0,10.593-2.787,13.561-7.4
			c3.464-5.384,11.062-11.672,21.073-11.672c9.474,0,16.889,5.984,20.521,11.293c2.912,4.814,8.154,7.779,13.815,7.779
			c5.744,0,11.04-3.054,13.925-7.993c3.651-5.244,11.031-11.078,20.54-11.078c10.012,0,17.609,6.287,21.074,11.67
			c2.967,4.613,8.076,7.4,13.56,7.4h0.609c5.485,0,10.593-2.787,13.561-7.4c3.537-5.497,11.177-11.916,21.073-11.916
			s17.537,6.419,21.074,11.916c2.967,4.613,8.076,7.4,13.56,7.4h0.609c5.485,0,10.593-2.787,13.561-7.4
			c4.504-7.001,12.776-11.524,21.073-11.524c8.905,0,16.125-7.22,16.125-16.125c0-8.906-7.22-16.125-16.125-16.125
			c-12.645,0-24.807,4.339-34.72,11.907c-7.796-6.094-16.932-10.153-26.607-11.647v-63.036h11.988
			c9.878,0,17.526,6.437,21.073,11.95c2.968,4.613,8.077,7.4,13.561,7.4h0.609c5.485,0,10.593-2.788,13.56-7.4
			c3.537-5.497,11.178-11.916,21.073-11.916c9.896,0,17.537,6.419,21.073,11.916c2.968,4.613,8.077,7.4,13.561,7.4h0.61
			c5.485,0,10.593-2.788,13.56-7.4c3.506-5.448,11.149-11.81,21.154-11.81c8.906,0,16.088-7.22,16.088-16.125
			S504.743,315.446,495.837,315.446z M454.818,323.514c-8.6-5.244-18.712-8.173-28.938-8.173c-12.542,0-24.76,4.405-34.704,12.084
			c-0.062,0.048-0.109,0.092-0.171,0.141c-0.062-0.048-0.287-0.094-0.349-0.141c-0.059-0.045-0.339-0.088-0.339-0.133V214.254
			h64.501V323.514z"/>
	</g>
</g>
<g>
	<g>
		<path d="M200.038,263.705c-8.905,0-16.125,7.22-16.125,16.125v15.05c0,8.905,7.22,16.125,16.125,16.125s16.125-7.22,16.125-16.125
			v-15.05C216.163,270.925,208.945,263.705,200.038,263.705z"/>
	</g>
</g>
<g>
	<g>
		<path d="M260.239,263.705c-8.905,0-16.125,7.22-16.125,16.125v15.05c0,8.905,7.22,16.125,16.125,16.125
			c8.905,0,16.125-7.22,16.125-16.125v-15.05C276.365,270.925,269.146,263.705,260.239,263.705z"/>
	</g>
</g>
<g>
	<g>
		<path d="M216.123,353.208c-0.418-8.532-7.448-15.327-16.084-15.327c-2.984,0-5.769,0.825-8.166,2.238
			c-4.758,2.804-7.959,7.966-7.959,13.887v15.05c0,8.906,7.22,16.125,16.125,16.125s16.125-7.22,16.125-16.125v-15.05
			C216.163,353.737,216.136,353.474,216.123,353.208z"/>
	</g>
</g>
<g>
	<g>
		<path d="M260.239,337.881c-8.905,0-16.125,7.22-16.125,16.125v14.307v0.743c0,8.906,7.22,16.125,16.125,16.125
			c3.529,0,6.783-1.147,9.439-3.07c4.045-2.931,6.687-7.679,6.687-13.055v-15.05C276.365,345.101,269.145,337.881,260.239,337.881z"
			/>
	</g>
</g>
<g>
	<g>
		<path d="M200.038,198.129c-8.905,0-16.125,7.22-16.125,16.125v15.05c0,8.906,7.22,16.125,16.125,16.125s16.125-7.22,16.125-16.125
			v-15.05C216.163,205.348,208.945,198.129,200.038,198.129z"/>
	</g>
</g>
<g>
	<g>
		<path d="M260.239,198.129c-8.905,0-16.125,7.22-16.125,16.125v15.05c0,8.906,7.22,16.125,16.125,16.125
			c8.905,0,16.125-7.22,16.125-16.125v-15.05C276.365,205.348,269.146,198.129,260.239,198.129z"/>
	</g>
</g>
<g>
	<g>
		<path d="M416.777,50.498c-25.091,0-45.503,20.412-45.503,45.503c0,25.091,20.412,45.503,45.503,45.503
			s45.503-20.412,45.503-45.503C462.281,70.911,441.868,50.498,416.777,50.498z M416.777,109.254
			c-7.308,0-13.253-5.945-13.253-13.253c0-7.308,5.945-13.253,13.253-13.253s13.253,5.945,13.253,13.253
			C430.03,103.31,424.085,109.254,416.777,109.254z"/>
	</g>
</g>
</svg>